<svg xmlns="http://www.w3.org/2000/svg" version="1.1" xmlns:xlink="http://www.w3.org/1999/xlink" xmlns:svgjs="http://svgjs.dev/svgjs" viewBox="0 0 6.689693770883654 6.827180943389798"><g transform="matrix(1,0,0,1,1.9874785764680456,2.3203200706043665)"><g><path d=" M -0.566518665767983 0.05796389702214669 Q -0.543256689885372 0.06957770251547321 -0.5360866024402763 0.09439382320404338 Q -0.5289165149951806 0.11920994389261355 -0.5400836356618407 0.14157722839512418 Q -0.5525908108085 0.1666285870379361 -0.5758415520135863 0.17402135603298122 Q -0.5990922932186726 0.18141412502802634 -0.6223542691012838 0.16980031953469982 L -1.1394858867993294 -0.0883835102784824 Q -1.1627478626819405 -0.09999731577180893 -1.1703646349537027 -0.12391874508027867 Q -1.1779814072254648 -0.1478401743887484 -1.1654742320788054 -0.17289153303156035 Q -1.1547537962388117 -0.19436412615397053 -1.130833027793726 -0.2030989322191663 Q -1.1069122593486398 -0.21183373828436203 -1.0836502834660289 -0.20021993279103556 L -0.566518665767983 0.05796389702214669 M -0.613394439999571 -0.9435147936106957 Q -0.5976361313771714 -0.9616166086954104 -0.5757193117650283 -0.9624247040417574 Q -0.5538024921528855 -0.9632327993881044 -0.5357006770681708 -0.9474744907657047 L -0.09597741896864204 -0.564678910479914 Q -0.0763671192935344 -0.5476074094723145 -0.07465831249809629 -0.5229177359358769 Q -0.07294950570265818 -0.49822806239943934 -0.09002100671025776 -0.4786177627243317 Q -0.09855675721405754 -0.4688126128867779 -0.11081489614254136 -0.4615850247683258 Q -0.12307303507102513 -0.45435743664987366 -0.13370314678079664 -0.4543305101242984 L -0.7681123557756175 -0.4855547882194867 L -0.7631087314911611 -0.5156706269761941 L -0.4040893989776522 -0.20313083929860165 Q -0.3859875838929375 -0.18737253067620205 -0.3840969481550941 -0.16517623601905734 Q -0.38220631241725067 -0.14297994136191267 -0.3986212172322503 -0.1241238839820015 Q -0.4143795258546499 -0.10602206889728676 -0.43629634546679286 -0.1052139735509398 Q -0.4582131650789357 -0.10440587820459282 -0.4763149801636505 -0.12016418682699245 L -0.9160382382631792 -0.5029597671127832 Q -0.935648537938287 -0.5200312681203827 -0.9373573447337249 -0.5447209416568203 Q -0.9390661515291632 -0.5694106151932579 -0.9219946505215635 -0.5890209148683655 Q -0.9128023038251638 -0.5995803070011158 -0.8988050283125835 -0.6072826623697626 Q -0.8848077528000032 -0.6149850177384093 -0.8719149142046425 -0.6130421556861847 L -0.25519000935857516 -0.5813027205524388 L -0.2573012370904175 -0.5606014472228994 L -0.6072696620615691 -0.865262080589292 Q -0.6253714771462837 -0.8810203892116917 -0.6275904109804271 -0.902839562721238 Q -0.6298093448145706 -0.9246587362307845 -0.613394439999571 -0.9435147936106957 M 0.15567988197806168 -0.6646849447633867 Q 0.1315722595483216 -0.6504433668738024 0.10760400934874394 -0.6566096447113999 Q 0.08363575914916628 -0.6627759225489973 0.07041143682312383 -0.6851615719480417 L -0.22357542104043532 -1.1828117778191047 Q -0.23679974336647774 -1.2051974272181492 -0.2306334655288803 -1.2291656774177269 Q -0.22446718769128282 -1.2531339276173044 -0.20208153829223852 -1.266358249943347 L 0.07773907919581602 -1.4316622790188775 Q 0.10012472859486038 -1.44488660134492 0.12358435101266718 -1.4395813100226704 Q 0.14704397343047393 -1.4342760187004209 0.1602682957565164 -1.4118903693013767 Q 0.17145810695547542 -1.3929486659637236 0.16503751522699256 -1.3694109090218198 Q 0.15861692349850964 -1.3458731520799163 0.13623127409946528 -1.3326488297538737 L -0.09623508504445694 -1.1953193286757404 L -0.09458973978757657 -1.2102288168958526 L 0.00764444434836703 -1.0371705273109328 L -0.004994622422089229 -1.0448029575380589 L 0.18700537050048358 -1.1582269528729614 Q 0.20939101989952794 -1.1714512751990038 0.23285064231733474 -1.1661459838767543 Q 0.2563102647351415 -1.1608406925545047 0.269534587061184 -1.1384550431554605 Q 0.28072439826014295 -1.1195133398178074 0.2743038065316601 -1.0959755828759037 Q 0.2678832148031772 -1.072437825934 0.2454975654041329 -1.0592135036079575 L 0.05177559945086438 -0.9447722527095133 L 0.05494682805305734 -0.9570987813835818 L 0.1780347512416063 -0.7487400446693997 Q 0.19125907356764876 -0.7263543952703553 0.18423180921470347 -0.7018775172890068 Q 0.17720454486175818 -0.6774006393076583 0.15567988197806168 -0.6646849447633867 M 0.5112278965227686 -1.6064731621444928 L 0.8357216631341656 -1.6897125484369695 Q 0.8609062539756472 -1.6961729187163856 0.8819572712578123 -1.6845387160627447 Q 0.9030082885399774 -1.6729045134091038 0.9094686588193935 -1.6477199225676222 Q 0.9156805533188321 -1.6235039698354283 0.9025807609959484 -1.6041417529918611 Q 0.8894809686730647 -1.5847795361482941 0.8642963778315831 -1.578319165868878 L 0.5930777072310124 -1.508745947475166 L 0.597571361954984 -1.5274490773528555 L 0.6460241390506049 -1.338564646041744 L 0.6362872279364824 -1.3443259446762257 L 0.8629485455098165 -1.4024692771909706 Q 0.8881331363512981 -1.4089296474703867 0.9091841536334633 -1.3972954448167458 Q 0.9302351709156284 -1.385661242163105 0.9366955411950444 -1.3604766513216233 Q 0.9429074356944831 -1.3362606985894296 0.9298076433715993 -1.3168984817458624 Q 0.9167078510487154 -1.2975362649022952 0.8915232602072339 -1.291075894622879 L 0.6677678569617631 -1.2336779894480667 L 0.6706232412683816 -1.2426694732222563 L 0.7208153488238452 -1.0470045751461305 L 0.7108299619297453 -1.0537345118899 L 0.9810799944210282 -1.1230592545036344 Q 1.0062645852625098 -1.1295196247830503 1.0275640783246525 -1.1169167840201217 Q 1.048863571386795 -1.1043139432571931 1.0545785143262787 -1.0820352667435749 Q 1.0607904088257172 -1.057819314011381 1.0478148543928223 -1.03797277811317 Q 1.0348392999599272 -1.0181262422149588 1.0096547091184456 -1.011665871935543 L 0.6851609425070486 -0.928426485643066 Q 0.659976351665567 -0.9219661153636498 0.6386768586034244 -0.9345689561265785 Q 0.6173773655412818 -0.9471717968895071 0.6109169952618656 -0.9723563877309888 L 0.46729799443484576 -1.5322292148993095 Q 0.46083762415542967 -1.5574138057407911 0.47344046491835834 -1.578713298802934 Q 0.486043305681287 -1.6000127918650766 0.5112278965227686 -1.6064731621444928 M 1.2901563362557056 -1.039772818599243 Q 1.262204219434135 -1.041409634164072 1.2412648516594902 -1.060165776549919 Q 1.2203254838848456 -1.0789219189357664 1.2218453840521866 -1.1048774559843677 L 1.2556339339261535 -1.681889010372505 Q 1.2571538340934947 -1.7078445474211064 1.2756469168349944 -1.72429161070657 Q 1.2941399995764942 -1.7407386739920336 1.3200955366250955 -1.7392187738246925 L 1.6076030239326795 -1.722382956586453 Q 1.6595140980298821 -1.719343156251771 1.7033287011494775 -1.6892303590805957 Q 1.747143304269073 -1.6591175619094205 1.7722602227015651 -1.6090636868500852 Q 1.7973771411340573 -1.55900981179075 1.7936943061131925 -1.496117548942216 Q 1.7914729135609246 -1.4581825332557987 1.7738949431656323 -1.423150191672881 Q 1.75631697277034 -1.3881178500899631 1.7281670175149237 -1.360716572398621 Q 1.7000170622595072 -1.3333152947072786 1.666138172825611 -1.319271760582072 L 1.6684809897832051 -1.3421739702724755 Q 1.6955562411236174 -1.3255628064103768 1.7128262211993341 -1.3040163963106792 Q 1.730096201275051 -1.2824699862109816 1.7392044891626584 -1.2583963680417811 Q 1.748312777050266 -1.2343227498725806 1.7487309989571505 -1.2072520075400068 Q 1.7512627160344918 -1.1820609295829145 1.751649454588085 -1.1630057351915901 Q 1.7520361931416781 -1.1439505408002657 1.7557685475471887 -1.1307097126316175 Q 1.7595009019526993 -1.1174688844629692 1.7720694665857926 -1.109720905173906 Q 1.7932718940047847 -1.09545706727724 1.797330274761225 -1.0706774477152743 Q 1.8013886555176655 -1.0458978281533085 1.7833070311712924 -1.0279241011887459 Q 1.7715658923362905 -1.015589367350628 1.7543903623204475 -1.0130891336265777 Q 1.7372148323046046 -1.0105888999025274 1.7204485061799688 -1.01507669538387 Q 1.703682180055333 -1.0195644908652124 1.693051737496465 -1.026197264870303 Q 1.6766653864136645 -1.0371739446137958 1.6608343834689312 -1.0576343782788928 Q 1.6450033805241975 -1.07809481194399 1.6364504407746567 -1.1116521840347948 Q 1.6278975010251162 -1.1452095561255997 1.6309373013597983 -1.1971206302228024 Q 1.6319310822384443 -1.2140915582930416 1.6267889795513228 -1.2289175078395327 Q 1.6216468768642012 -1.2437434573860238 1.6112794939496806 -1.2548685358802953 Q 1.60091211103516 -1.2659936143745671 1.5842627003080123 -1.272477989628879 Q 1.5676132895808643 -1.2789623648831907 1.544652622191717 -1.2803068919543001 L 1.3429980651218143 -1.2921153471005655 L 1.3593169404901935 -1.3141991490085543 L 1.34663161986277 -1.0975702436413817 Q 1.345111719695429 -1.0716147065927804 1.3301126515566255 -1.054963041361713 Q 1.3151135834178223 -1.038311376130646 1.2901563362557056 -1.039772818599243 M 1.3500174979789192 -1.3948807477097422 L 1.5826190415298467 -1.3812601039024164 Q 1.6005882594865706 -1.3802078653250265 1.618523739586084 -1.3956858675733774 Q 1.6364592196855976 -1.4111638698217281 1.6491064528511297 -1.4389720969003585 Q 1.6617536860166617 -1.4667803239789887 1.6637412477739542 -1.5007221801194675 Q 1.6663133865186852 -1.5446469351247927 1.64457807629924 -1.5754702426965719 Q 1.622842766079795 -1.6062935502683509 1.595888939144709 -1.607871908134436 L 1.365283975366751 -1.6213756365442737 L 1.3791341003643716 -1.6526194205268565 L 1.3625905716198512 -1.3701033826516957 L 1.3500174979789192 -1.3948807477097422 M 2.658140287485771 -1.0392982388825787 Q 2.6280954311459994 -0.9705791977984477 2.5791502086234868 -0.9210376476387914 Q 2.5302049861009746 -0.871496097479135 2.468685829325686 -0.8443687432097366 Q 2.4071666725503973 -0.8172413889403383 2.33868405861344 -0.8166236605520724 Q 2.2702014446764824 -0.8160059321638065 2.2023986574734735 -0.8456501904190479 Q 2.134595870270464 -0.8752944486742892 2.0890048760077637 -0.925786638586576 Q 2.0434138817450638 -0.9762788284988627 2.0215539353382734 -1.0398606084605173 Q 1.9996939889314833 -1.103442388422172 2.0028265173979083 -1.1730138428083428 Q 2.0059590458643335 -1.2425852971945133 2.036003902204105 -1.3113043382786445 Q 2.0660487585438765 -1.3800233793627754 2.114993981066389 -1.4295649295224317 Q 2.1639392035889013 -1.479106479682088 2.22545836036419 -1.5062338339514865 Q 2.286977517139479 -1.5333611882208849 2.3550020041358755 -1.5341792156514158 Q 2.423026491132272 -1.5349972430819467 2.490829278335281 -1.5053529848267055 Q 2.55863206553829 -1.4757087265714643 2.6046811867415514 -1.4250162376169122 Q 2.650730307944812 -1.3743237486623603 2.6725902543516025 -1.3107419687007056 Q 2.694450200758393 -1.247160188739051 2.6913176722919676 -1.1775887343528804 Q 2.6881851438255424 -1.1080172799667096 2.658140287485771 -1.0392982388825787 M 2.5390272829399443 -1.091375989871516 Q 2.5658673546034736 -1.1527649999066731 2.5629610954200865 -1.2135169847101261 Q 2.5600548362367004 -1.2742689695135792 2.5298100425289474 -1.3224172036823987 Q 2.4995652488211944 -1.370565437851218 2.4427575081916464 -1.3954025190920958 Q 2.385949767562098 -1.4202396003329738 2.3300666964444066 -1.4097475861100013 Q 2.2741836253267156 -1.399255571887029 2.2282706009123534 -1.3603937115465075 Q 2.1823575764979917 -1.3215318512059857 2.155116906749932 -1.2592265872897068 Q 2.1282768350864028 -1.1978375772545498 2.130724967329228 -1.1372858914933621 Q 2.133173099572054 -1.0767342057321743 2.163417893279807 -1.0285859715633547 Q 2.1936626869875595 -0.9804377373945353 2.250470427617108 -0.9556006561536574 Q 2.3072781682466563 -0.9307635749127796 2.3631612393643477 -0.9412555891357519 Q 2.4190443104820387 -0.9517476033587242 2.465615760879227 -0.9908672915975417 Q 2.5121872112764145 -1.0299869798363592 2.5390272829399443 -1.091375989871516 M 2.7924269647165323 -0.4592370270575765 Q 2.741064915142524 -0.5067968826456365 2.711865239380333 -0.5576852795095866 Q 2.682665563618141 -0.6085736763735365 2.675139408155287 -0.6755091451770712 Q 2.673074433398238 -0.692412869005055 2.6774501995584488 -0.7074412644786626 Q 2.68182596571866 -0.7224696599522703 2.691337936836272 -0.7327420698670719 Q 2.7069647465294917 -0.7496181718699604 2.730961479254666 -0.7512481468748483 Q 2.75495821197984 -0.7528781218797362 2.7733018011134143 -0.7358924591697148 Q 2.7872429288549307 -0.7229833555100985 2.7900959642342653 -0.70398703509997 Q 2.7969159979568716 -0.6554227772551052 2.8135605575228197 -0.6182043861445855 Q 2.8302051170887674 -0.5809859950340658 2.870561013182631 -0.5436175370720187 Q 2.8977095251003213 -0.518478756261187 2.9282689804725632 -0.5058545855022045 Q 2.958828435844805 -0.49323041474322227 2.9860183805001386 -0.49462931060779397 Q 3.0132083251554715 -0.4960282064723657 3.030193987865493 -0.51437179560594 Q 3.050576783117519 -0.5363841025662293 3.051637355617763 -0.5640223945896472 Q 3.0526979281180076 -0.5916606866130651 3.03540110057213 -0.62743874912137 Q 3.0181042730262524 -0.6632168116296748 2.98171630186891 -0.7078140711312674 Q 2.947529561407596 -0.7503730511076574 2.9286566126171483 -0.7903363067802517 Q 2.9097836638267003 -0.8302995624528459 2.9069310917439903 -0.8676942523501153 Q 2.9040785196612804 -0.9050889422473848 2.917246324286308 -0.9399150663693294 Q 2.930414128911336 -0.974741190491274 2.959629468772573 -1.0062921638010218 Q 3.0037921918186288 -1.0539854955483152 3.059626220644058 -1.0649769115226633 Q 3.115460249469487 -1.0759683274970115 3.173589868895657 -1.0548508620863941 Q 3.231719488321827 -1.0337333966757767 3.2823477943304926 -0.9868529675961175 Q 3.330041126077786 -0.9426902445500618 3.357515077040504 -0.8906740738096264 Q 3.3849890280032224 -0.8386579030691907 3.390287257538201 -0.7928656683148715 Q 3.3959390112399275 -0.7562861975683582 3.375556215987902 -0.734273890608069 Q 3.360608832803083 -0.7181315321705235 3.335905515041037 -0.7164743986371646 Q 3.311202197278991 -0.7148172651038056 3.2943260952761024 -0.7304440747970253 Q 3.2833199417959578 -0.7406354724230382 3.2806298575874497 -0.7553922826119353 Q 3.278401931659574 -0.7765355166611505 3.2670836867503246 -0.8040518269547609 Q 3.255765441841075 -0.8315681372483712 3.239528260202193 -0.8581877528058122 Q 3.223291078563311 -0.8848073683632531 3.2042137458643936 -0.9024724575816754 Q 3.172662772554646 -0.9316877974429123 3.143543645784619 -0.9436597002219649 Q 3.114424519014592 -0.9556316030010173 3.0905092618748307 -0.9518818728855137 Q 3.0665940047350695 -0.94813214277001 3.0496083420250484 -0.9297885536364356 Q 3.0292255467730227 -0.9077762466761464 3.0288172422527078 -0.8815782832549435 Q 3.0284089377323933 -0.8553803198337404 3.044809070542102 -0.824521194055068 Q 3.06120920335181 -0.7936620682763955 3.088846568781979 -0.7558047568018693 Q 3.125397491110148 -0.7069679870790451 3.1485914257072407 -0.6650479274666615 Q 3.171785360304333 -0.623127867854278 3.177831144317202 -0.5855020988166924 Q 3.183876928330071 -0.5478763297791067 3.1707634407619856 -0.5116370355834182 Q 3.1576499531939 -0.47539774138772983 3.122999201265456 -0.4379768195552381 Q 3.0788364782194004 -0.39028348780794475 3.020488663972213 -0.38025689453925576 Q 2.9621408497250257 -0.3702303012705667 2.9022311884424403 -0.3916331628784425 Q 2.842321527159855 -0.41303602448631827 2.7924269647165323 -0.4592370270575765 M 3.710299327323354 -0.47424204153764665 L 3.8805439847181917 -0.1857255660487857 Q 3.893757002904059 -0.1633332425780084 3.8884398675573237 -0.1398763017777998 Q 3.8831227322105875 -0.1164193609775912 3.86073040873981 -0.10320634279172325 Q 3.8391993284794474 -0.09050151761300407 3.816956681092919 -0.09769628218445209 Q 3.7947140337063905 -0.10489104675590011 3.781501015520523 -0.1272833702266774 L 3.639206973518868 -0.3684314691427403 L 3.6584218451602535 -0.3693195613705388 L 3.490479419129424 -0.270221924976529 L 3.49330382075555 -0.2811774147170353 L 3.6122209844283617 -0.07964650348003982 Q 3.6254340026142295 -0.05725418000926258 3.6201168672674937 -0.033797239209053975 Q 3.6147997319207574 -0.010340298408845372 3.59240740844998 0.002872719777022581 Q 3.5708763281896174 0.015577544955741818 3.548633680803089 0.008382780384293742 Q 3.526391033416561 0.0011880158128457219 3.513178015230693 -0.02120430765793152 L 3.3957854305793274 -0.22015148926368341 L 3.4052163412983876 -0.21991081726880102 L 3.2312452127946565 -0.11725582982474991 L 3.2349308576311966 -0.1287195125724049 L 3.376716706625703 0.11156734313324346 Q 3.389929724811571 0.13395966660402076 3.3837513462544204 0.15792480041137813 Q 3.37757296769727 0.1818899342187355 3.3577643738577363 0.19357837338315714 Q 3.3362332935973735 0.20628319856187632 3.313560024605638 0.1993425304940027 Q 3.290886755613902 0.19240186242612906 3.2776737374280343 0.17000953895535176 L 3.107429080033197 -0.11850693653350919 Q 3.0942160618473293 -0.14089926000428646 3.1003944404044796 -0.1648643938116438 Q 3.10657281896163 -0.18882952761900118 3.128965142432407 -0.20204254580486913 L 3.6267637180519943 -0.49577810393685695 Q 3.6491560415227715 -0.5089911221227249 3.673121175330129 -0.5028127435655744 Q 3.6970863091374864 -0.49663436500842395 3.710299327323354 -0.47424204153764665" fill="#212245" fill-rule="nonzero"></path></g><g><path d=" M -0.6432204334223586 2.083743297799611 L -1.2601711271753264 2.1259433153082754 Q -1.2727028217869427 2.1276628007432787 -1.2834035892360722 2.121789677553727 Q -1.2941043566852017 2.1159165543641754 -1.298969148187274 2.106050764804218 Q -1.3073719698726716 2.0890098555642913 -1.3023833542289511 2.0765153081951695 Q -1.2973947385852307 2.0640207608260477 -1.2848382791452848 2.0578292080052285 Q -1.2790023031982276 2.0538365416348228 -1.2705004221995115 2.052989181331486 L -0.590916020216792 2.0066638040336207 Q -0.5761482919122678 2.004956701012782 -0.5656748425566785 2.0114993960687895 Q -0.5552013932010893 2.0180420911247974 -0.5503489841131819 2.0301439143776627 Q -0.5445996850652783 2.0418034838576125 -0.5462342501696369 2.0543166048479815 Q -0.5478688152739954 2.0668297258383506 -0.5568624797022863 2.0757243309533226 L -1.0024203413276342 2.5830882949316956 Q -1.0082686996888564 2.5893169949950092 -1.0154438193688253 2.592855025178334 Q -1.0315878386487558 2.6008155930908163 -1.046312228503703 2.5946965781864773 Q -1.0610366183586504 2.5885775632821377 -1.0676704249523852 2.575124213882196 Q -1.072977470227373 2.5643615343622423 -1.0711217782365567 2.5522968583518715 Q -1.0692660862457404 2.5402321823415006 -1.059817785630369 2.529998433493616 L -0.6520531264665068 2.0635694649067804 L -0.6432204334223586 2.083743297799611 M -1.091865375050174 2.09870044832283 L -1.006871329891343 2.0946989126752773 L -0.8755219593353929 2.361075230794129 L -0.9388455696213565 2.4090243744814925 L -1.091865375050174 2.09870044832283 M 0.034724400113245624 2.7758931654201775 Q 0.04684094770815461 2.787817479839896 0.04660331091651049 2.802315532424821 Q 0.04636567412486625 2.816813585009746 0.035142789965131316 2.828217394510837 L -0.40044540148458013 3.2708277507719274 Q -0.41377257642426535 3.284369774554473 -0.43039188153989294 3.2841490995135807 Q -0.44701118665552064 3.283928424472689 -0.4591277342504297 3.27200411005297 Q -0.46554237709479335 3.2656912377131198 -0.46950201402921493 3.256883782044905 Q -0.47346165096363657 3.2480763263766903 -0.4728167598728269 3.2402927465138642 L -0.38085913687638573 2.5366708341398647 L -0.35818721188022096 2.5421465822137153 L -0.7467795759110425 2.9370034861889875 Q -0.7580024600707773 2.948407295690078 -0.7728512277856943 2.948526027945343 Q -0.7876999955006112 2.948644760200608 -0.7998165430955203 2.9367204457808898 Q -0.8112203525966112 2.925497561621155 -0.810982715804967 2.9109995090362295 Q -0.8107450790133227 2.8965014564513045 -0.7995221948535879 2.8850976469502134 L -0.36253114288390953 2.4410618145014866 Q -0.34990539820420774 2.4282325288127593 -0.33399317726548094 2.428458857770569 Q -0.31808095632675404 2.4286851867283783 -0.30667714682566316 2.439908070888113 Q -0.3002625039812995 2.446220943227964 -0.29594649799996875 2.4553791140261705 Q -0.2916304920186381 2.4645372848243765 -0.29297681336943127 2.473033602781021 L -0.383599422848914 3.1667450288445744 L -0.4040879022282853 3.1690302449658807 L -0.017599828977413967 2.776311555272063 Q -0.006376944817679142 2.764907745770972 0.008471822897237802 2.764789013515707 Q 0.023320590612154746 2.7646702812604422 0.034724400113245624 2.7758931654201775 M 0.40855110929657434 3.111433341444619 L -0.0485860376841058 3.527888175550749 Q -0.057335686158102916 3.5370229252233716 -0.06936914478720872 3.539071308347106 Q -0.08140260341631453 3.54111969147084 -0.09134492522657742 3.5364132876397636 Q -0.10851802653521335 3.5282840446588133 -0.11237410453354083 3.5153948762422393 Q -0.11623018253186829 3.502505707825665 -0.11024021401958925 3.489851843703512 Q -0.10814907720074635 3.4830970567487016 -0.10201469573898272 3.477149841931531 L 0.40163037357340103 3.018540373911818 Q 0.41213957927216327 3.0080257842583364 0.42441103417305026 3.0066432523001176 Q 0.43668248907393725 3.005260720341899 0.44800465086505925 3.0117266813977404 Q 0.45975466754991534 3.017288795016285 0.4662500813853905 3.0281082034615707 Q 0.4727454952208655 3.0389276119068565 0.47122662624524136 3.0514852007293527 L 0.4374378113776194 3.7258725641858765 Q 0.4367265145396355 3.7343869083654524 0.4333036753897618 3.741617687863825 Q 0.4256022873025459 3.7578869417351646 0.4102636416707771 3.7622430811019685 Q 0.3949249960390083 3.766599220468773 0.3813672844795589 3.7601813970627593 Q 0.3705211152319994 3.755047138337949 0.36447762511517257 3.74444165733953 Q 0.35843413499834587 3.7338361763411116 0.35947701143040744 3.7199468851875843 L 0.38909432056978277 3.1011166863451693 L 0.40855110929657434 3.111433341444619 M 0.06634668185940307 3.401953787958109 L 0.13045017643875745 3.346000754235936 L 0.3988928653158559 3.4730736576749983 L 0.3790778951640362 3.549991581190149 L 0.06634668185940307 3.401953787958109 M 1.1344168897317322 3.8406954382992904 Q 1.1511851450223989 3.843492868281799 1.1611291814158784 3.8568107562601965 Q 1.171073217809358 3.8701286442385943 1.1682757878268497 3.886896899529261 Q 1.1654783578443415 3.9036651548199273 1.1518318405916599 3.9125405459027056 Q 1.1381853233389783 3.921415936985484 1.1214170680483118 3.918618507002976 L 0.7801337544853353 3.8616825791236913 Q 0.7633654991946689 3.8588851491411833 0.7539969241327532 3.845156354536075 Q 0.7446283490708375 3.8314275599309666 0.7474257790533457 3.8146593046403 L 0.8492851413576149 3.2040975384683854 Q 0.8520825713401231 3.1873292831777187 0.8658113659452314 3.177960708115803 Q 0.8795401605503399 3.1685921330538878 0.8972947837992808 3.171554117741249 Q 0.9140630390899473 3.1743515477237576 0.9240070754834269 3.1876694357021553 Q 0.9339511118769065 3.200987323680553 0.9311536818943983 3.2177555789712198 L 0.8325854136871976 3.808589985977644 L 0.8158200392090693 3.7875442686316347 L 1.1344168897317322 3.8406954382992904 M 1.785040625819327 3.1833145110446583 Q 1.801960880329715 3.181669826484114 1.8146162617342014 3.1929986093625606 Q 1.8272716431386877 3.204327392241007 1.828819581548612 3.2202523376625485 Q 1.8294000584523336 3.2262241921956267 1.8285359447980958 3.232838820499058 Q 1.8276718311438578 3.23945344880249 1.824271071692194 3.2458122879380493 L 1.6246083697301852 3.589742230579323 L 1.6328068265047948 3.5397143852677884 L 1.6640558331551403 3.861199220965161 Q 1.6657005177156847 3.878119475475549 1.6554154170013948 3.891175765273838 Q 1.645130316287105 3.9042320550721277 1.6292053708655632 3.9057799934820516 Q 1.6112898072663289 3.9075214241932166 1.5986827989371526 3.896690295859193 Q 1.5860757906079763 3.88585916752517 1.5844311060474319 3.868938913014782 L 1.5539560686020486 3.5554165500281805 L 1.5634386321401 3.5806173632838436 L 1.3100832573611096 3.2998112841641114 Q 1.3033374336230694 3.292429288357062 1.3001235647713016 3.285206335567265 Q 1.2969096959195336 3.2779833827774683 1.296232472865192 3.271016219155544 Q 1.2945877883046473 3.2540959646451557 1.3074095348163632 3.2412954640147387 Q 1.3202312813280792 3.228494963384322 1.3341656085719282 3.227140517275638 Q 1.3540717903488553 3.225205594263233 1.368848985365643 3.2428587669932503 L 1.6023538735329934 3.5055000950472204 L 1.583152762393052 3.5043523446424665 L 1.7541303488998023 3.2064133157920542 Q 1.7651344440423997 3.185249434057064 1.785040625819327 3.1833145110446583 M 2.4317889274602815 3.7070198869767887 Q 2.415137319181315 3.713855378306887 2.3994792527752713 3.707311300340974 Q 2.3838211863692282 3.700767222375062 2.3773654445574692 3.6850407034449266 L 2.142680242224105 3.1133354858670668 L 2.2213128368747816 3.0810567768082704 L 2.4559980392081453 3.6527619943861307 Q 2.4624537810199048 3.668488513316266 2.455909703053992 3.684146579722309 Q 2.4493656250880798 3.699804646128352 2.4317889274602815 3.7070198869767887 M 1.9802044990879795 3.2178660215605364 Q 1.964477980157844 3.224321763372296 1.9498520827037247 3.218975444670461 Q 1.9352261852496055 3.2136291259686263 1.9287704434378463 3.197902607038491 Q 1.922314701626087 3.1821760881083554 1.928965859195092 3.168095530484729 Q 1.935617016764097 3.1540149728611024 1.9513435356942324 3.1475592310493434 L 2.381510082900874 2.970975705021812 Q 2.39723660183101 2.9645199632100527 2.4123250439595445 2.9696764071527184 Q 2.4274134860880796 2.9748328510953836 2.433869227899839 2.990559370025519 Q 2.440704719229937 3.0072109783044856 2.4334011422273467 3.0210188660128656 Q 2.4260975652247567 3.034826753721246 2.4103710462946215 3.041282495533005 L 1.9802044990879795 3.2178660215605364 M 2.9803175639082835 3.35752657246845 Q 2.990000207887708 3.3714996324614406 2.9865607065842203 3.3884825600884225 Q 2.983121205280733 3.4054654877154045 2.9691481452877424 3.415148131694829 Q 2.9535311958838117 3.425969910260068 2.937654996608753 3.422371814016408 Q 2.921778797333695 3.418773717772748 2.9120961533542706 3.4048006577797576 L 2.560103566337546 2.896838829799275 Q 2.549851355065214 2.8820438251008142 2.5531646676624202 2.8657566534730208 Q 2.5564779802596265 2.8494694818452277 2.571272984958087 2.8392172705728957 Q 2.585246044951078 2.829534626593471 2.6016594052851527 2.8321521831914893 Q 2.6180727656192273 2.8347697397895066 2.628324976891559 2.8495647444879673 L 2.9803175639082835 3.35752657246845 M 3.1459434363273386 2.3575504070463746 Q 3.164054798271169 2.3510713200320197 3.179029378503825 2.361367530347264 Q 3.1940039587364812 2.371663740662508 3.196982944174553 2.390640717391159 Q 3.2005090934944374 2.406053902362925 3.191803708515831 2.4170637285365872 Q 3.1830983235372248 2.428073554710249 3.1684870631696773 2.4336870269397832 Q 3.1314624146777983 2.444557878058843 3.097340037571588 2.464853527361627 Q 3.063217660465378 2.485149176664411 3.034886802258706 2.5161550224563487 Q 2.995088691920762 2.5597108534497854 2.977169829697138 2.609712497188875 Q 2.9592509674735146 2.659714140927964 2.9622820483987886 2.7112487171697888 Q 2.9653131293240627 2.7627832934116134 2.989472200068239 2.8119497382777805 Q 3.0136312708124153 2.861116183143948 3.059401805076705 2.90293792621094 Q 3.108125277035465 2.9474578462499963 3.1606788961669148 2.967031223990859 Q 3.2132325152983645 2.986604601731722 3.26479893663049 2.984279910139765 Q 3.3163653579626153 2.981955218547807 3.363107207797625 2.958967189619659 Q 3.4098490576326355 2.9359791606915104 3.4482980794845473 2.8938997985453088 Q 3.475954393448203 2.8636321871769885 3.493466496023018 2.8281592924063443 Q 3.510978598597833 2.7926863976357006 3.5184101799644076 2.753420998129367 Q 3.5226861584013087 2.738363906497609 3.5336062466507676 2.7293777130529953 Q 3.544526334900227 2.720391519608381 3.560130590413798 2.7211037062883974 Q 3.580036872107871 2.7230376010932424 3.5909323417921306 2.737056828616875 Q 3.60182781147639 2.751076056140508 3.5969409789770745 2.768284160862517 Q 3.591150889255938 2.7968581850981966 3.578793403774646 2.828913489691659 Q 3.5664359182933536 2.860968794285121 3.548331782874625 2.8911596916010396 Q 3.5302276474558956 2.9213505889169578 3.5066185989503356 2.947188793743573 Q 3.4580514134531835 3.0003416722440384 3.39642472130972 3.030725069280163 Q 3.334798029166257 3.0611084663162877 3.267048343348447 3.065578373651797 Q 3.199298657530637 3.0700482809873058 3.1309815574341124 3.0462307698998425 Q 3.0626644573375876 3.0224132588123798 3.001391000177329 2.9664260866420515 Q 2.9438087151351584 2.9138116356868036 2.914036172161448 2.850033930453089 Q 2.8842636291877377 2.7862562252193745 2.88154377264037 2.718073732009154 Q 2.8788239160930025 2.6498912387989337 2.90239969032986 2.5840624239141685 Q 2.9259754645667178 2.518233609029403 2.9765662827929176 2.4628660272580847 Q 3.0116425834297496 2.424477837229971 3.0553678053896878 2.3973788526631252 Q 3.0990930273496256 2.3702798680962793 3.1459434363273386 2.3575504070463746 M 3.9275454449704608 2.2978107995510646 Q 3.895918642295635 2.364711811147061 3.852095355742903 2.4059370407488125 Q 3.8082720691901715 2.447162270350564 3.7426525787077556 2.4736591091965128 Q 3.7333323800605154 2.476995858689056 3.723724552890209 2.47743135503292 Q 3.7141167257199026 2.4778668513767843 3.7050760484772 2.4735929591234296 Q 3.6906109648888767 2.466754731518062 3.684225094426857 2.451015587372261 Q 3.6778392239648374 2.43527644322646 3.6851048407955407 2.4199072919138658 Q 3.6910882899502373 2.407250343774083 3.7057343163959002 2.402006880285801 Q 3.7567570697062522 2.3829890296020104 3.794284633944421 2.3504017326544253 Q 3.83181219818259 2.3178144357068398 3.8561733840267127 2.2662825754234373 Q 3.874978509941474 2.2265035955555477 3.8774938793011007 2.188425742189258 Q 3.880009248660727 2.150347888822968 3.8663827292860167 2.1206777359799065 Q 3.8527562099113064 2.091007583136845 3.822921975010389 2.076903738700774 Q 3.786331876814245 2.0607122374116247 3.753209858413171 2.0699416413489824 Q 3.7200878400120967 2.0791710452863397 3.687384780436616 2.1074024089516423 Q 3.6546817208611357 2.135633772616945 3.6216086684524478 2.177516623574971 Q 3.592004019120043 2.2144024574127106 3.5610844503563035 2.2423708371917463 Q 3.530164881592564 2.270339216970782 3.4969523917628202 2.2856094664549644 Q 3.4637399019330766 2.3008797159391468 3.426829100177324 2.300575226616597 Q 3.3899182984215717 2.3002707372940465 3.3492352508294116 2.2810382221539496 Q 3.297703390546009 2.256677036309827 3.271650155162454 2.2111772678922947 Q 3.245596919778899 2.1656774994747625 3.2470029572013295 2.107718263293057 Q 3.2484089946237598 2.0497590271113513 3.2778988511719085 1.9873783541367058 Q 3.303969593917373 1.9322302229562225 3.345343661183561 1.8915063164902053 Q 3.3867177284497494 1.8507824100241876 3.432463943235278 1.8359067980100123 Q 3.4581890145031218 1.8259458388059822 3.474462233539986 1.833638844862021 Q 3.4880232494040393 1.8400496832420532 3.4939817306407233 1.8566928951121244 Q 3.4999402118774077 1.8733361069821957 3.49310198427204 1.8878011905705192 Q 3.4884007027933497 1.8977459355374917 3.4773216579711685 1.9024634312532398 Q 3.452878754379331 1.9097121872844594 3.428205618656555 1.9268071097354529 Q 3.4035324829337794 1.9439020321864464 3.3821468074299474 1.9680816286108038 Q 3.3607611319261155 1.9922612250351612 3.347512065940715 2.020287324487538 Q 3.327852161575283 2.0618744398039683 3.325098452966189 2.099286564695455 Q 3.3223447443570953 2.1366986895869418 3.3361603137076736 2.1647990462309306 Q 3.349975883058252 2.192899402874919 3.3807141856834395 2.2074306365363254 Q 3.4150687592057083 2.223671427099074 3.446620981407709 2.2142529731858485 Q 3.4781732036097104 2.2048345192726226 3.5079996546733114 2.178008546467325 Q 3.537826105736913 2.1511825736620267 3.5679074335682524 2.1156281967738924 Q 3.5996983183009337 2.076457548988677 3.6314480208785445 2.045563271424163 Q 3.6631977234561557 2.014668993859649 3.696812957874435 1.9973769143142586 Q 3.7304281922927145 1.980084834768868 3.769574518722343 1.9803400348178188 Q 3.808720845151971 1.9805952348667701 3.855732366814023 2.002819474584215 Q 3.905456091648885 2.026325881977667 3.9310819378071042 2.0727297181194695 Q 3.956707783965324 2.119133554261272 3.955992119654496 2.177972213530448 Q 3.955276455343668 2.2368108727996243 3.9275454449704608 2.2978107995510646" fill="#64c6c4" fill-rule="nonzero"></path></g><g clip-path="url(#SvgjsClipPath1003)"><g clip-path="url(#SvgjsClipPath10017afda501-a235-416d-bb3f-09339f0f9e85)"><path d=" M 2.488126168068115 2.1490117784119804 L 2.0733231700606236 2.1490117784119804 L 2.0733231700606236 2.1490117784119804 L 2.073323170060623 1.746889227574774 C 2.073323170060623 1.7269152305321998 2.081257809491026 1.7077593164067815 2.0953815582472304 1.6936355676505772 C 2.1095053070034346 1.679511818894373 2.1286612211288527 1.6715771794639707 2.1486352181714268 1.6715771794639707 L 2.412770333882828 1.6715771794639707 C 2.4543640295329476 1.6715771794639707 2.4880823819936313 1.7052955319246543 2.4880823819936313 1.746889227574774 L 2.4880823819936313 2.1490117784119804 L 2.4880823819936313 2.1490117784119804 Z" fill="#dceac6" transform="matrix(1,0,0,1,0,0)" fill-rule="nonzero"></path></g><g clip-path="url(#SvgjsClipPath10017afda501-a235-416d-bb3f-09339f0f9e85)"><path d=" M 1.2615906496496123 2.1490117784119795 L 0.846787651642121 2.14901177841198 L 0.846787651642121 2.14901177841198 L 0.846787651642121 1.452200189089117 C 0.8467830048567283 1.4288454462316813 0.8560585823440805 1.4064459187538345 0.8725728797182538 1.3899316213797082 C 0.8890871770924271 1.3734173240055825 0.9114867045703005 1.3641417465182941 0.9348414474276107 1.3641463933037534 L 1.1735718827238346 1.3641463933037532 C 1.222189558366776 1.3641560653354032 1.261595486747831 1.4035737555098264 1.261590649649612 1.45219143187422 L 1.2615906496496123 2.149003021197083 L 1.2615906496496123 2.1490117784119795 Z" fill="#64c6c4" transform="matrix(1,0,0,1,0,0)" fill-rule="nonzero"></path></g><g clip-path="url(#SvgjsClipPath10017afda501-a235-416d-bb3f-09339f0f9e85)"><path d=" M 0.6483491620850508 2.14901177841198 L 0.23354616407755976 2.14901177841198 L 0.23354616407755976 2.14901177841198 L 0.23354616407755965 0.8389324298798658 C 0.23354384138274203 0.8132085850420704 0.24376097084211942 0.7885375272088435 0.2619496548612075 0.770347200870636 C 0.28013833888029555 0.7521568745324285 0.3048084741146932 0.7419375175802209 0.33053231905740543 0.7419375176850684 L 0.5513630071051498 0.7419375176850684 C 0.6049269814452749 0.7419375176850684 0.6483491620850506 0.7853596983248441 0.6483491620850506 0.838923672664969 L 0.6483491620850508 2.14901177841198 L 0.6483491620850508 2.14901177841198 Z" fill="#a4cb6a" transform="matrix(1,0,0,1,0,0)" fill-rule="nonzero"></path></g><g clip-path="url(#SvgjsClipPath10017afda501-a235-416d-bb3f-09339f0f9e85)"><path d=" M 1.8748671660737593 2.1490117784119804 L 1.4600641680662685 2.1490117784119804 L 1.4600641680662685 2.1490117784119804 L 1.4600641680662685 1.2104747862981289 C 1.4600618454163574 1.1811896550246266 1.471693091045348 1.1531030438261318 1.4923991636604435 1.1323936866182798 C 1.5131052362755388 1.1116843294104275 1.5411900022090435 1.1000486289176516 1.5704751334826124 1.1000463064519392 L 1.7644474434424662 1.1000463064519392 C 1.793732574687794 1.100046306451939 1.8218182632002822 1.1116797795423978 1.8425259780917913 1.132387494433907 C 1.8632336929833004 1.153095209325416 1.8748671660737593 1.1811808978379044 1.8748671660737593 1.2104660290832319 L 1.8748671660737593 2.1490117784119804 L 1.8748671660737593 2.1490117784119804 Z" fill="#a4cb6a" transform="matrix(1,0,0,1,0,0)" fill-rule="nonzero"></path></g><g clip-path="url(#SvgjsClipPath10017afda501-a235-416d-bb3f-09339f0f9e85)"><path d=" M 2.684086365809445 2.1766583058405624 L 0.030650252138117645 2.1766583058405624 C 0.013722585303766606 2.1766583058405624 3.8889846439205305e-18 2.1629357205367956 0 2.146008053702445 C 0 2.1290803868680936 0.013722585303766596 2.1153578015643273 0.03065025213811764 2.1153578015643273 L 2.684086365809445 2.1153578015643273 C 2.7010140326437964 2.1153578015643273 2.7147366179475627 2.1290803868680936 2.7147366179475627 2.146008053702445 C 2.7147366179475627 2.1629357205367956 2.7010140326437964 2.1766583058405624 2.684086365809445 2.1766583058405624 Z" fill="#212245" transform="matrix(1,0,0,1,0,0)" fill-rule="nonzero"></path></g><g clip-path="url(#SvgjsClipPath10017afda501-a235-416d-bb3f-09339f0f9e85)"><path d=" M 2.2942326730423823 1.213828799603528 L 1.6809473994033377 0.48747036721951953 L 1.083854216108116 0.8970365507188407 C 1.071241490095311 0.9056915765183193 1.0541782465423855 0.9037221657972523 1.0438687728902174 0.8924214984683299 L 0.43733531193645575 0.22768758731173103 L 0.48261887016680044 0.18637104742954844 L 1.071173768937832 0.8314012250687858 L 1.669125159292921 0.42122203652670237 C 1.6821051477088869 0.4123218950738595 1.6997163840985363 0.4146988253237413 1.7098724802068241 0.4267215674817704 L 2.341039986664736 1.1742724599155632 Z" fill="#212245" transform="matrix(1,0,0,1,0,0)" fill-rule="nonzero"></path></g><g clip-path="url(#SvgjsClipPath10017afda501-a235-416d-bb3f-09339f0f9e85)"><path d=" M 2.457537216434273 1.1940550083669936 C 2.457537216434273 1.2713128868170294 2.3949073441259396 1.3339427591253625 2.317649465675904 1.3339427591253625 C 2.240391587225868 1.3339427591253625 2.1777617149175352 1.2713128868170294 2.1777617149175352 1.1940550083669936 C 2.1777617149175352 1.1167971299169581 2.240391587225868 1.0541672576086247 2.317649465675904 1.0541672576086247 C 2.3949073441259396 1.0541672576086247 2.457537216434273 1.1167971299169581 2.457537216434273 1.1940550083669936 Z" fill="#dceac6" transform="matrix(1,0,0,1,0,0)" fill-rule="nonzero"></path></g><g clip-path="url(#SvgjsClipPath10017afda501-a235-416d-bb3f-09339f0f9e85)"><path d=" M 0.6642295130929843 0.17397176815794965 C 0.6825237763150931 0.28682450440933355 0.6058690038788491 0.39314013195996456 0.49301626762746514 0.4114343951820734 C 0.3801635313760812 0.4297286584041823 0.2738479038254502 0.3530738859679383 0.2555536406033413 0.24022114971655437 C 0.23725937738123246 0.12736841346517042 0.3139141498174765 0.021052785914539424 0.42676688606886043 0.00275852269243058 C 0.5396196223202443 -0.015535740529678262 0.6459352498708754 0.061119031906565695 0.6642295130929843 0.17397176815794965 Z" fill="#a4cb6a" transform="matrix(1,0,0,1,0,0)" fill-rule="nonzero"></path></g><g clip-path="url(#SvgjsClipPath10017afda501-a235-416d-bb3f-09339f0f9e85)"><path d=" M 1.1488058531696996 0.7894647021430066 C 1.1942563966782442 0.8349152456515511 1.1942563966782442 0.9086051215164552 1.1488058531696996 0.9540556650249999 C 1.1033553096611552 0.9995062085335445 1.029665433796251 0.9995062085335445 0.9842148902877065 0.9540556650249999 C 0.9387643467791618 0.9086051215164552 0.9387643467791618 0.834915245651551 0.9842148902877063 0.7894647021430066 C 1.029665433796251 0.7440141586344619 1.103355309661155 0.7440141586344619 1.1488058531696996 0.7894647021430066 Z" fill="#64c6c4" transform="matrix(1,0,0,1,0,0)" fill-rule="nonzero"></path></g><g clip-path="url(#SvgjsClipPath10017afda501-a235-416d-bb3f-09339f0f9e85)"><path d=" M 1.8912362514953762 0.39815829837232647 C 1.9179325279049506 0.5112413525752583 1.847902221988314 0.624554865750063 1.7348191677853824 0.6512511421596376 C 1.6217361135824504 0.6779474185692123 1.5084226004076455 0.6079171126525754 1.4817263239980711 0.4948340584496436 C 1.4550300475884965 0.38175100424671177 1.525060353505133 0.26843749107190706 1.638143407708065 0.24174121466233253 C 1.7512264619109967 0.21504493825275794 1.8645399750858016 0.2850752441693946 1.8912362514953762 0.39815829837232647 Z" fill="#a4cb6a" transform="matrix(1,0,0,1,0,0)" fill-rule="nonzero"></path></g></g><g><path d=" M -0.581413281562623 1.0883291529202812 A 1.9387815905364043 1.9387815905364043 0 0 1 3.2961498995101857 1.0883291529202812 A 1.9387815905364043 1.9387815905364043 0 0 1 -0.581413281562623 1.0883291529202812 Z M -0.5314132815626229 1.0883291529202814 A 1.8887815905364045 1.8887815905364045 0 0 0 3.2461498995101863 1.0883291529202814 A 1.8887815905364045 1.8887815905364045 0 0 0 -0.5314132815626227 1.0883291529202814 Z" fill="#212245" fill-rule="nonzero"></path></g><g transform="matrix(0.059652624185368805,-0.9982191965834954,0.9982191965834954,0.059652624185368805,-2.0282918966541055,-0.1915734291900324)"><g clip-path="url(#SvgjsClipPath1004)"><path d=" M -1.1158276669616973 1.1773380555858943 C -1.0064088324789386 1.1773380555858943 -0.9157743945479041 1.0868975211031355 -0.9157743945479041 0.9772847831721012 C -0.9157743945479041 0.8678663893789977 -1.0064088324789386 0.7772321717927908 -1.116021570409973 0.7772321717927908 C -1.2254406252375594 0.7772321717927908 -1.3158809393754902 0.8678663893789977 -1.3158809393754902 0.9772847831721012 C -1.3158809393754902 1.0868975211031355 -1.225246942134111 1.1773380555858943 -1.1158276669616973 1.1773380555858943 Z M -1.1158276669616973 1.1380263348962392 C -1.2049124197203178 1.1380263348962392 -1.2763737728237663 1.0663701969652046 -1.2763737728237663 0.9772847831721012 C -1.2763737728237663 0.8882015728272735 -1.2051061028237662 0.816739338344515 -1.116021570409973 0.816739338344515 C -1.0269361566168698 0.816739338344515 -0.9552822221341111 0.8882015728272735 -0.9550883186858352 0.9772847831721012 C -0.9550883186858352 1.0663701969652046 -1.0267422531685937 1.1380263348962392 -1.1158276669616973 1.1380263348962392 Z" fill="#212245" transform="matrix(1,0,0,1,0,0)" fill-rule="nonzero"></path></g></g><g transform="matrix(-0.059652624185368805,-0.9982191965834954,-0.9982191965834954,0.059652624185368805,5.03809377478016,4.746009970993663)"><g clip-path="url(#SvgjsClipPath1005)"><path d=" M 3.8305642849092605 1.1773380555858943 C 3.939983119392019 1.1773380555858943 4.030617557323054 1.0868975211031355 4.030617557323054 0.9772847831721012 C 4.030617557323054 0.8678663893789977 3.939983119392019 0.7772321717927908 3.830370381460985 0.7772321717927908 C 3.7209513266333984 0.7772321717927908 3.6305110124954676 0.8678663893789977 3.6305110124954676 0.9772847831721012 C 3.6305110124954676 1.0868975211031355 3.721145009736847 1.1773380555858943 3.8305642849092605 1.1773380555858943 Z M 3.8305642849092605 1.1380263348962392 C 3.74147953215064 1.1380263348962392 3.6700181790471915 1.0663701969652046 3.6700181790471915 0.9772847831721012 C 3.6700181790471915 0.8882015728272735 3.7412858490471916 0.816739338344515 3.830370381460985 0.816739338344515 C 3.919455795254088 0.816739338344515 3.9911097297368467 0.8882015728272735 3.9913036331851224 0.9772847831721012 C 3.9913036331851224 1.0663701969652046 3.919649698702364 1.1380263348962392 3.8305642849092605 1.1380263348962392 Z" fill="#212245" transform="matrix(1,0,0,1,0,0)" fill-rule="nonzero"></path></g></g></g><defs><clipPath id="SvgjsClipPath1003"><path d=" M 0 0 h 2.7147366179475627 v 2.1766583058405624 h -2.7147366179475627 Z"></path></clipPath><clipPath id="SvgjsClipPath10017afda501-a235-416d-bb3f-09339f0f9e85"><path d=" M 0 0 L 2.7147366179475627 0 L 2.7147366179475627 2.1766583058405624 L 0 2.1766583058405624 Z"></path></clipPath><clipPath id="SvgjsClipPath1004"><path d=" M -1.4243104255823869 0.6612728417927908 h 0.6169655172413793 v 0.639 h -0.6169655172413793 Z"></path></clipPath><clipPath id="SvgjsClipPath1005"><path d=" M 3.522081526288571 0.6612728417927908 h 0.6169655172413793 v 0.639 h -0.6169655172413793 Z"></path></clipPath></defs></svg>