<?xml version="1.0" encoding="utf-8"?>
<svg viewBox="3.863 5.347 54.486 43.3892" width="54.486" height="43.3892" xmlns="http://www.w3.org/2000/svg">
  <defs>
    <clipPath id="SvgjsClipPath1003" fill="#000000">
      <path d=" M 0 0 h 2.7147366179475627 v 2.1766583058405624 h -2.7147366179475627 Z" fill="#000000"/>
    </clipPath>
    <clipPath id="SvgjsClipPath10017afda501-a235-416d-bb3f-09339f0f9e85" fill="#000000">
      <path d=" M 0 0 L 2.7147366179475627 0 L 2.7147366179475627 2.1766583058405624 L 0 2.1766583058405624 Z" fill="#000000"/>
    </clipPath>
  </defs>
  <g transform="matrix(20.070466995239258, 0, 0, 19.93439483642578, 160.54501342773438, 156.84352111816406)" style="">
    <g clip-path="url(#SvgjsClipPath1003)" transform="matrix(1, 0, 0, 1, -7.806596, -7.599814)">
      <g clip-path="url(#SvgjsClipPath10017afda501-a235-416d-bb3f-09339f0f9e85)" style="">
        <path d=" M 2.488126168068115 2.1490117784119804 L 2.0733231700606236 2.1490117784119804 L 2.0733231700606236 2.1490117784119804 L 2.073323170060623 1.746889227574774 C 2.073323170060623 1.7269152305321998 2.081257809491026 1.7077593164067815 2.0953815582472304 1.6936355676505772 C 2.1095053070034346 1.679511818894373 2.1286612211288527 1.6715771794639707 2.1486352181714268 1.6715771794639707 L 2.412770333882828 1.6715771794639707 C 2.4543640295329476 1.6715771794639707 2.4880823819936313 1.7052955319246543 2.4880823819936313 1.746889227574774 L 2.4880823819936313 2.1490117784119804 L 2.4880823819936313 2.1490117784119804 Z" fill="#4c1d95" transform="matrix(1,0,0,1,0,0)" fill-rule="nonzero"/>
      </g>
      <g clip-path="url(#SvgjsClipPath10017afda501-a235-416d-bb3f-09339f0f9e85)" style="">
        <path d=" M 1.2615906496496123 2.1490117784119795 L 0.846787651642121 2.14901177841198 L 0.846787651642121 2.14901177841198 L 0.846787651642121 1.452200189089117 C 0.8467830048567283 1.4288454462316813 0.8560585823440805 1.4064459187538345 0.8725728797182538 1.3899316213797082 C 0.8890871770924271 1.3734173240055825 0.9114867045703005 1.3641417465182941 0.9348414474276107 1.3641463933037534 L 1.1735718827238346 1.3641463933037532 C 1.222189558366776 1.3641560653354032 1.261595486747831 1.4035737555098264 1.261590649649612 1.45219143187422 L 1.2615906496496123 2.149003021197083 L 1.2615906496496123 2.1490117784119795 Z" fill="#8b5cf6" transform="matrix(1,0,0,1,0,0)" fill-rule="nonzero"/>
      </g>
      <g clip-path="url(#SvgjsClipPath10017afda501-a235-416d-bb3f-09339f0f9e85)" style="">
        <path d=" M 0.6483491620850508 2.14901177841198 L 0.23354616407755976 2.14901177841198 L 0.23354616407755976 2.14901177841198 L 0.23354616407755965 0.8389324298798658 C 0.23354384138274203 0.8132085850420704 0.24376097084211942 0.7885375272088435 0.2619496548612075 0.770347200870636 C 0.28013833888029555 0.7521568745324285 0.3048084741146932 0.7419375175802209 0.33053231905740543 0.7419375176850684 L 0.5513630071051498 0.7419375176850684 C 0.6049269814452749 0.7419375176850684 0.6483491620850506 0.7853596983248441 0.6483491620850506 0.838923672664969 L 0.6483491620850508 2.14901177841198 L 0.6483491620850508 2.14901177841198 Z" fill="#a78bfa" transform="matrix(1,0,0,1,0,0)" fill-rule="nonzero"/>
      </g>
      <g clip-path="url(#SvgjsClipPath10017afda501-a235-416d-bb3f-09339f0f9e85)" style="">
        <path d=" M 1.8748671660737593 2.1490117784119804 L 1.4600641680662685 2.1490117784119804 L 1.4600641680662685 2.1490117784119804 L 1.4600641680662685 1.2104747862981289 C 1.4600618454163574 1.1811896550246266 1.471693091045348 1.1531030438261318 1.4923991636604435 1.1323936866182798 C 1.5131052362755388 1.1116843294104275 1.5411900022090435 1.1000486289176516 1.5704751334826124 1.1000463064519392 L 1.7644474434424662 1.1000463064519392 C 1.793732574687794 1.100046306451939 1.8218182632002822 1.1116797795423978 1.8425259780917913 1.132387494433907 C 1.8632336929833004 1.153095209325416 1.8748671660737593 1.1811808978379044 1.8748671660737593 1.2104660290832319 L 1.8748671660737593 2.1490117784119804 L 1.8748671660737593 2.1490117784119804 Z" fill="#a78bfa" transform="matrix(1,0,0,1,0,0)" fill-rule="nonzero"/>
      </g>
      <g clip-path="url(#SvgjsClipPath10017afda501-a235-416d-bb3f-09339f0f9e85)" style="">
        <path d=" M 2.684086365809445 2.1766583058405624 L 0.030650252138117645 2.1766583058405624 C 0.013722585303766606 2.1766583058405624 3.8889846439205305e-18 2.1629357205367956 0 2.146008053702445 C 0 2.1290803868680936 0.013722585303766596 2.1153578015643273 0.03065025213811764 2.1153578015643273 L 2.684086365809445 2.1153578015643273 C 2.7010140326437964 2.1153578015643273 2.7147366179475627 2.1290803868680936 2.7147366179475627 2.146008053702445 C 2.7147366179475627 2.1629357205367956 2.7010140326437964 2.1766583058405624 2.684086365809445 2.1766583058405624 Z" fill="#212245" transform="matrix(1,0,0,1,0,0)" fill-rule="nonzero"/>
      </g>
      <g clip-path="url(#SvgjsClipPath10017afda501-a235-416d-bb3f-09339f0f9e85)" style="">
        <path d=" M 2.2942326730423823 1.213828799603528 L 1.6809473994033377 0.48747036721951953 L 1.083854216108116 0.8970365507188407 C 1.071241490095311 0.9056915765183193 1.0541782465423855 0.9037221657972523 1.0438687728902174 0.8924214984683299 L 0.43733531193645575 0.22768758731173103 L 0.48261887016680044 0.18637104742954844 L 1.071173768937832 0.8314012250687858 L 1.669125159292921 0.42122203652670237 C 1.6821051477088869 0.4123218950738595 1.6997163840985363 0.4146988253237413 1.7098724802068241 0.4267215674817704 L 2.341039986664736 1.1742724599155632 Z" fill="#212245" transform="matrix(1,0,0,1,0,0)" fill-rule="nonzero"/>
      </g>
      <g clip-path="url(#SvgjsClipPath10017afda501-a235-416d-bb3f-09339f0f9e85)" style="">
        <path d=" M 2.457537216434273 1.1940550083669936 C 2.457537216434273 1.2713128868170294 2.3949073441259396 1.3339427591253625 2.317649465675904 1.3339427591253625 C 2.240391587225868 1.3339427591253625 2.1777617149175352 1.2713128868170294 2.1777617149175352 1.1940550083669936 C 2.1777617149175352 1.1167971299169581 2.240391587225868 1.0541672576086247 2.317649465675904 1.0541672576086247 C 2.3949073441259396 1.0541672576086247 2.457537216434273 1.1167971299169581 2.457537216434273 1.1940550083669936 Z" fill="#4c1d95" transform="matrix(1,0,0,1,0,0)" fill-rule="nonzero"/>
      </g>
      <g clip-path="url(#SvgjsClipPath10017afda501-a235-416d-bb3f-09339f0f9e85)" style="">
        <path d=" M 0.6642295130929843 0.17397176815794965 C 0.6825237763150931 0.28682450440933355 0.6058690038788491 0.39314013195996456 0.49301626762746514 0.4114343951820734 C 0.3801635313760812 0.4297286584041823 0.2738479038254502 0.3530738859679383 0.2555536406033413 0.24022114971655437 C 0.23725937738123246 0.12736841346517042 0.3139141498174765 0.021052785914539424 0.42676688606886043 0.00275852269243058 C 0.5396196223202443 -0.015535740529678262 0.6459352498708754 0.061119031906565695 0.6642295130929843 0.17397176815794965 Z" fill="#a78bfa" transform="matrix(1,0,0,1,0,0)" fill-rule="nonzero"/>
      </g>
      <g clip-path="url(#SvgjsClipPath10017afda501-a235-416d-bb3f-09339f0f9e85)" style="">
        <path d=" M 1.1488058531696996 0.7894647021430066 C 1.1942563966782442 0.8349152456515511 1.1942563966782442 0.9086051215164552 1.1488058531696996 0.9540556650249999 C 1.1033553096611552 0.9995062085335445 1.029665433796251 0.9995062085335445 0.9842148902877065 0.9540556650249999 C 0.9387643467791618 0.9086051215164552 0.9387643467791618 0.834915245651551 0.9842148902877063 0.7894647021430066 C 1.029665433796251 0.7440141586344619 1.103355309661155 0.7440141586344619 1.1488058531696996 0.7894647021430066 Z" fill="#8b5cf6" transform="matrix(1,0,0,1,0,0)" fill-rule="nonzero"/>
      </g>
      <g clip-path="url(#SvgjsClipPath10017afda501-a235-416d-bb3f-09339f0f9e85)" style="">
        <path d=" M 1.8912362514953762 0.39815829837232647 C 1.9179325279049506 0.5112413525752583 1.847902221988314 0.624554865750063 1.7348191677853824 0.6512511421596376 C 1.6217361135824504 0.6779474185692123 1.5084226004076455 0.6079171126525754 1.4817263239980711 0.4948340584496436 C 1.4550300475884965 0.38175100424671177 1.525060353505133 0.26843749107190706 1.638143407708065 0.24174121466233253 C 1.7512264619109967 0.21504493825275794 1.8645399750858016 0.2850752441693946 1.8912362514953762 0.39815829837232647 Z" fill="#a78bfa" transform="matrix(1,0,0,1,0,0)" fill-rule="nonzero"/>
      </g>
    </g>
  </g>
</svg>